<svg xmlns="http://www.w3.org/2000/svg" width="30" height="30" fill="none"><path fill="#E5E5E5" d="M0 0h30v30H0z"/><g clip-path="url(#a)"><path fill="#202020" d="M-528-902h768V122h-768z"/><path fill="#202020" d="M-528-596h768V650h-768z"/><path fill="#424242" fill-rule="evenodd" d="M210 23h-339v-1h339v1Z" clip-rule="evenodd"/><path fill="#000" d="M-528-902h768V122h-768z" opacity=".3"/><path fill="#202020" d="M-280-905h520V119h-520z"/><rect width="30" height="30" fill="#313131" rx="6"/><path fill="#fff" fill-rule="evenodd" d="M16.43 16.968a3.751 3.751 0 1 0-2.86 0 8.613 8.613 0 0 0-3.761 1.612l1.381 1.839a6.317 6.317 0 0 1 3.81-1.27c1.431 0 2.749.473 3.81 1.27l1.382-1.839a8.613 8.613 0 0 0-3.762-1.612Z" clip-rule="evenodd"/></g><defs><clipPath id="a"><path fill="#fff" d="M-528-902h768V122h-768z"/></clipPath></defs></svg>